HIERARCHY
ROOT hip
{
  OFFSET 0 0 0
  CHANNELS 6 Xposition Yposition Zposition Zrotation Yrotation Xrotation
  JOINT abdomen
  {
    OFFSET 0 20.6881 -0.73152
    CHANNELS 3 Zrotation Xrotation Yrotation
    JOINT chest
    {
      OFFSET 0 11.7043 -0.48768
      CHANNELS 3 Zrotation Xrotation Yrotation
      JOINT neck
      {
        OFFSET 0 22.1894 -2.19456
        CHANNELS 3 Zrotation Xrotation Yrotation
        JOINT head
        {
          OFFSET -0.24384 7.07133 1.2192
          CHANNELS 3 Zrotation Xrotation Yrotation
          JOINT leftEye
          {
            OFFSET 4.14528 8.04674 8.04672
            CHANNELS 3 Zrotation Xrotation Yrotation
            End Site
            {
              OFFSET 1 0 0
            }
          }
          JOINT rightEye
          {
            OFFSET -3.6576 8.04674 8.04672
            CHANNELS 3 Zrotation Xrotation Yrotation
            End Site
            {
              OFFSET 1 0 0
            }
          }
        }
      }
      JOINT rCollar
      {
        OFFSET -2.68224 19.2634 -4.8768
        CHANNELS 3 Zrotation Xrotation Yrotation
        JOINT rShldr
        {
          OFFSET -8.77824 -1.95073 1.46304
          CHANNELS 3 Zrotation Xrotation Yrotation
          JOINT rForeArm
          {
            OFFSET -28.1742 -1.7115 0.48768
            CHANNELS 3 Zrotation Xrotation Yrotation
            JOINT rHand
            {
              OFFSET -22.5879 0.773209 7.07136
              CHANNELS 3 Zrotation Xrotation Yrotation
              JOINT rThumb1
              {
                OFFSET -1.2192 -0.487915 3.41376
                CHANNELS 3 Zrotation Xrotation Yrotation
                JOINT rThumb2
                {
                  OFFSET -3.37035 -0.52449 3.41376
                  CHANNELS 3 Zrotation Xrotation Yrotation
                  End Site
                  {
                    OFFSET -1.78271 -1.18214 1.43049
                  }
                }
              }
              JOINT rIndex1
              {
                OFFSET -7.75947 0.938293 5.60832
                CHANNELS 3 Zrotation Xrotation Yrotation
                JOINT rIndex2
                {
                  OFFSET -2.54057 -0.884171 1.56538
                  CHANNELS 3 Zrotation Xrotation Yrotation
                  End Site
                  {
                    OFFSET -1.62519 -0.234802 1.16502
                  }
                }
              }
              JOINT rMid1
              {
                OFFSET -8.24714 1.18213 3.41376
                CHANNELS 3 Zrotation Xrotation Yrotation
                JOINT rMid2
                {
                  OFFSET -3.10165 -0.590103 1.0647
                  CHANNELS 3 Zrotation Xrotation Yrotation
                  End Site
                  {
                    OFFSET -2.48547 -0.328903 0.83742
                  }
                }
              }
              JOINT rRing1
              {
                OFFSET -8.82822 0.546677 1.51678
                CHANNELS 3 Zrotation Xrotation Yrotation
                JOINT rRing2
                {
                  OFFSET -2.60934 -0.819778 -0.0198488
                  CHANNELS 3 Zrotation Xrotation Yrotation
                  End Site
                  {
                    OFFSET -2.33842 -0.294052 0.168128
                  }
                }
              }
              JOINT rPinky1
              {
                OFFSET -8.27202 -0.0477905 -0.4584
                CHANNELS 3 Zrotation Xrotation Yrotation
                JOINT rPinky2
                {
                  OFFSET -1.82734 -0.647385 -0.700984
                  CHANNELS 3 Zrotation Xrotation Yrotation
                  End Site
                  {
                    OFFSET -1.69225 -0.51767 -0.607171
                  }
                }
              }
            }
          }
        }
      }
      JOINT lCollar
      {
        OFFSET 2.68224 19.2634 -4.8768
        CHANNELS 3 Zrotation Xrotation Yrotation
        JOINT lShldr
        {
          OFFSET 8.77824 -1.95073 1.46304
          CHANNELS 3 Zrotation Xrotation Yrotation
          JOINT lForeArm
          {
            OFFSET 28.1742 -1.7115 0.48768
            CHANNELS 3 Zrotation Xrotation Yrotation
            JOINT lHand
            {
              OFFSET 22.5879 0.773209 7.07136
              CHANNELS 3 Zrotation Xrotation Yrotation
              JOINT lThumb1
              {
                OFFSET 1.2192 -0.487915 3.41376
                CHANNELS 3 Zrotation Xrotation Yrotation
                JOINT lThumb2
                {
                  OFFSET 3.37035 -0.52449 3.41376
                  CHANNELS 3 Zrotation Xrotation Yrotation
                  End Site
                  {
                    OFFSET 1.78271 -1.18214 1.43049
                  }
                }
              }
              JOINT lIndex1
              {
                OFFSET 7.75947 0.938293 5.60832
                CHANNELS 3 Zrotation Xrotation Yrotation
                JOINT lIndex2
                {
                  OFFSET 2.54057 -0.884171 1.56538
                  CHANNELS 3 Zrotation Xrotation Yrotation
                  End Site
                  {
                    OFFSET 1.62519 -0.234802 1.16502
                  }
                }
              }
              JOINT lMid1
              {
                OFFSET 8.24714 1.18213 3.41376
                CHANNELS 3 Zrotation Xrotation Yrotation
                JOINT lMid2
                {
                  OFFSET 3.10165 -0.590103 1.0647
                  CHANNELS 3 Zrotation Xrotation Yrotation
                  End Site
                  {
                    OFFSET 2.48547 -0.328903 0.83742
                  }
                }
              }
              JOINT lRing1
              {
                OFFSET 8.82822 0.546677 1.51678
                CHANNELS 3 Zrotation Xrotation Yrotation
                JOINT lRing2
                {
                  OFFSET 2.60934 -0.819778 -0.0198488
                  CHANNELS 3 Zrotation Xrotation Yrotation
                  End Site
                  {
                    OFFSET 2.33842 -0.294052 0.168128
                  }
                }
              }
              JOINT lPinky1
              {
                OFFSET 8.27202 -0.0477905 -0.4584
                CHANNELS 3 Zrotation Xrotation Yrotation
                JOINT lPinky2
                {
                  OFFSET 1.82734 -0.647385 -0.700984
                  CHANNELS 3 Zrotation Xrotation Yrotation
                  End Site
                  {
                    OFFSET 1.69225 -0.51767 -0.607171
                  }
                }
              }
            }
          }
        }
      }
    }
  }
  JOINT rButtock
  {
    OFFSET -8.77824 4.35084 1.2192
    CHANNELS 3 Zrotation Xrotation Yrotation
    JOINT rThigh
    {
      OFFSET 0 -1.70687 -2.19456
      CHANNELS 3 Zrotation Xrotation Yrotation
      JOINT rShin
      {
        OFFSET 0 -36.8199 0.73152
        CHANNELS 3 Zrotation Xrotation Yrotation
        JOINT rFoot
        {
          OFFSET 0.73152 -45.1104 -5.12064
          CHANNELS 3 Zrotation Xrotation Yrotation
          End Site
          {
            OFFSET -1.1221 -3.69964 12.103
          }
        }
      }
    }
  }
  JOINT lButtock
  {
    OFFSET 8.77824 4.35084 1.2192
    CHANNELS 3 Zrotation Xrotation Yrotation
    JOINT lThigh
    {
      OFFSET 0 -1.70687 -2.19456
      CHANNELS 3 Zrotation Xrotation Yrotation
      JOINT lShin
      {
        OFFSET 0 -36.8199 0.73152
        CHANNELS 3 Zrotation Xrotation Yrotation
        JOINT lFoot
        {
          OFFSET -0.73152 -45.1104 -5.12064
          CHANNELS 3 Zrotation Xrotation Yrotation
          End Site
          {
            OFFSET 1.1221 -3.69964 12.103
          }
        }
      }
    }
  }
}
MOTION
Frames:	7
Frame Time:	0.03333
-90.36229999999999 66.9231 118.3049 -170.577855 16.917679 -171.040027 6.480553 7.520612 71.021735 -4.51912 -7.586707 -53.150363 6.960583 33.282307 137.68431 -27.438898 35.334457 -135.570552 23.334411 8.040493 37.592987 32.0286 -7.28752 -25.019664 85.523493 83.8786 -86.343182 100.299093 -22.529255 40.48667 -11.095613 7.90978 111.908373 2.268153 -32.303326 -10.93294 2.171642 -12.195302 10.092823 -121.267519 1.808355 72.012901 -168.395612 -16.644898 83.562621 4.526871 -11.33891 47.879557 -167.796509 35.587367 114.635032 2.467683 3.752097 20.492355 2.816588 -2.755962 13.365522 141.454775 7.166418 136.996125 -62.876261 62.177835 91.742497 7.913769 -2.87595 -17.03508 -37.087712 -50.101627 -26.827139 48.834781 -76.197845 98.971629 -10.808575 -36.021983 67.406371 -154.599279 -47.380417 -138.313241 166.990826 -4.036207 -86.950715 154.947465 -10.226035 -67.055459 32.850326 -41.285348 9.052681 49.389755 -73.951256 162.775463 87.009452 46.967529 -80.137093 -1.030648 43.757958 -19.191517 82.157581 47.69659 -87.95111 110.569238 30.262399 -103.572962 -37.481628 -45.83953 -4.709093 -145.074158 -33.027 160.722565 126.024566 59.839171 53.16774 -175.225446 58.913741 169.19748 31.630341 -62.677281 -31.881103 12.92245 46.479455 -141.105418 -39.627639 17.099404 -34.246731 108.606876 -25.519219 58.964764 -46.679922 71.496775 -47.803414 114.543867 -54.291331 -162.170954
-89.9829 65.80890000000001 118.05980000000001 -172.463393 16.137064 -170.80868 5.542215 7.244225 -34.8828 8.797179 -3.542833 52.163827 2.439014 35.433595 158.328814 -17.910725 42.063488 -154.867477 39.331121 5.321881 14.819182 33.477876 -9.022065 -29.397783 -10.855584 -22.002921 -29.834099 -68.139941 -25.850919 -104.164032 -1.383923 -13.852126 -143.156585 -174.614629 4.468834 134.618247 -173.862709 2.948078 79.911742 -125.325076 18.593106 90.000743 9.764749 -24.393247 32.749545 172.135546 49.52066 170.028513 -144.993998 52.169819 99.247333 -81.52165 53.697045 86.789996 -1.518167 -35.88651 -0.040893 -117.066532 16.984371 86.635012 -159.798923 17.950596 -164.904914 -162.071178 60.794839 -155.979827 14.140036 24.678452 -27.620779 -53.087639 -11.733806 -51.964896 178.265153 9.178656 -109.673926 -151.957722 -53.781707 -136.492789 171.066017 -4.601792 -87.941719 -164.841897 -18.340659 -82.420582 145.356841 33.810533 -94.446002 15.560256 -26.295462 -23.543657 163.473606 -27.125407 -135.72659 167.004257 -18.319221 -132.334947 68.746441 45.925115 -78.810197 -163.662958 -28.069849 -120.385914 49.656304 63.295538 -138.208917 -99.832332 13.409018 17.625222 -64.120492 48.290064 -47.057228 77.981086 14.959242 111.390694 66.544904 28.618709 114.529116 8.494873 36.848889 133.649297 -167.156944 74.342733 -6.692501 -163.817884 3.070103 89.086118 75.26682 4.496248 -41.569337 78.523814 -48.007456 -17.894228
-89.5863 65.0994 118.37729999999999 -174.425908 16.269765 -170.8045 0.069745 7.461519 7.616207 7.354564 -9.456678 7.407294 -14.985546 28.301755 -99.729582 36.154488 20.082087 96.101072 52.095851 -4.880743 -9.966634 36.273658 -9.880084 -29.563593 -148.48877 -43.418089 -169.194453 126.646388 -8.726964 -169.204514 106.987517 38.474477 78.416047 -125.594833 61.175508 97.874833 3.735361 -17.938025 2.963844 -167.677879 -55.053326 84.732952 -11.423838 -18.143526 21.628675 -68.952844 -74.549305 -124.067075 11.194951 -80.171025 9.670245 178.119496 -14.77897 152.590796 -12.3656 -0.969241 3.610566 89.917761 -66.93967 103.547583 -51.92499 -56.145492 -29.977556 -47.354576 -36.81964 -57.279598 143.456457 22.313355 -143.896507 50.831785 -32.274515 -2.382026 -145.219297 -10.451379 162.486888 143.965633 63.422055 -127.196898 -18.067644 -34.777071 -1.344459 32.766718 51.0176 -22.071631 27.902086 15.548933 -4.774371 157.391593 -25.648733 -82.949823 -85.454447 -80.240532 -46.248802 3.957501 18.909079 -19.800436 164.294498 -41.2158 -162.382067 -13.874602 38.643013 45.879002 -55.946453 -36.269705 -20.944698 -141.44846 79.779064 -166.469911 -73.548925 45.174842 -26.028746 85.543338 0.606484 -112.671541 -48.430272 -52.580095 -114.171202 -125.427171 -10.54356 179.961198 -10.766966 -1.03749 -4.45931 60.638144 -58.566409 139.626182 84.544951 3.052586 81.060078 141.428848 32.278096 155.070839
-89.1459 64.7367 119.0278 -175.86093 17.394262 -170.898286 0.049608 3.103005 -153.041789 -3.695256 5.84613 162.973102 6.135801 20.594695 105.792978 -28.513134 15.590053 -97.227515 51.37104 -12.43816 -25.532278 46.246981 -11.621332 -26.808551 -3.632706 6.252144 -2.812583 -92.574779 -10.6746 -179.122544 -171.104185 -14.499742 -80.708705 -9.098304 -3.015959 -4.334139 -158.334307 19.70096 86.816525 -98.911709 11.372712 17.844848 -167.202229 -7.162504 105.976383 -10.105432 17.076942 27.426074 -143.790186 63.74874 121.423501 17.192489 -16.600049 51.383663 -79.483509 -68.358803 -78.135832 8.322037 5.875807 -52.945716 -66.380784 -56.815818 -52.686288 -106.45908 -24.135481 -100.39729 71.706859 67.13572 -76.755744 155.914566 19.306486 -94.059861 122.777838 10.588278 177.756593 -1.236263 0.57087 -5.930062 -135.867842 -31.16234 -102.106198 62.097212 5.311914 48.039521 131.648786 24.067656 -107.691045 -157.033379 10.273754 -156.81537 154.465884 -35.432794 -153.135572 151.145017 -65.570957 -149.839316 117.224682 38.804168 -137.003345 175.41833 -29.269208 179.799308 75.927855 32.994568 -169.927647 -103.068218 -18.403336 -19.082724 -176.202923 47.510102 6.83491 160.501326 29.964999 122.307098 53.600131 -18.272436 -80.006656 -80.352356 38.838697 -2.387442 1.215112 -3.894305 11.510166 24.961022 -62.769705 -32.476321 -67.885829 26.944393 32.363237 112.452603 31.296229 -40.530341
-88.888 64.2741 119.4436 -175.924862 18.886348 -171.300565 0.82937 8.848381 -2.508455 3.798713 -7.999068 7.599194 6.228229 13.921615 92.706837 -25.53729 8.785681 -79.77144 45.102915 -13.437231 -31.675081 72.12589 -10.960844 -15.01112 -153.500294 3.186698 151.590004 -56.153901 5.152203 2.513014 -175.497711 -10.450182 -86.581723 -11.536357 9.357476 -4.630924 -2.360367 -11.464846 -0.73379 -106.881795 -55.055635 137.107319 -143.24987 8.021899 101.195322 12.027663 24.796049 24.76447 -169.840655 -57.917013 162.056689 -8.476288 -0.005382 -79.284511 -89.04184 73.382339 89.418488 59.576245 -25.774288 55.947596 -8.070186 59.653872 41.200795 20.07821 19.473917 20.281596 1.848428 48.542418 -6.430899 76.942966 2.689085 -109.261638 10.546442 15.336241 85.247123 -137.115419 -54.183542 -120.688946 -99.935465 -38.364026 -93.108525 48.207804 28.544911 69.474956 -3.073401 11.031496 2.936088 -15.766932 -2.393794 -72.113583 -12.314342 -17.707358 17.869142 -11.267681 -23.699838 -31.632098 133.116339 4.083739 -173.156702 160.018109 55.457914 157.928696 -42.019638 -38.691041 -9.841532 -132.096959 31.991023 -171.501642 -3.09655 21.40347 -2.51391 -9.444297 -35.304005 -177.032658 -35.963652 -61.362047 -70.631663 117.144381 12.833494 175.052818 -15.109655 -4.784212 -3.306957 58.597418 -53.716882 51.429658 8.524455 74.358428 -105.275207 2.131333 13.652851 96.399424
-88.9438 63.71210000000001 119.14089999999999 -174.497926 19.633031 -172.037549 4.560103 11.636193 -9.394084 1.147259 -9.75605 11.805881 -16.92003 14.022126 -86.661575 28.185159 14.518464 97.7399 47.706891 -13.650223 -30.292122 -161.013837 7.490934 42.75948 -171.272688 -42.769236 146.891613 -114.62678 -41.428586 -97.421788 29.394607 62.165903 -150.004737 179.323242 -3.092492 135.60139 169.342434 -9.920475 73.185888 51.633535 -81.322732 62.729249 -141.236455 9.201126 96.618739 153.611765 -37.651517 54.582539 5.910665 -61.019899 -11.660217 59.05498 77.693188 6.839569 -7.011395 -56.384873 0.103887 -110.884708 -15.639823 -125.767362 -101.169435 56.040661 145.270063 -17.315212 56.674037 63.982275 87.787365 84.749674 -101.062627 110.166078 11.502913 -78.357345 161.86898 8.922487 116.566848 0.616104 9.842593 3.542611 9.225935 -32.654066 -23.852299 -40.069943 19.409295 73.62729 -23.378917 -0.827233 20.530088 -156.284885 -30.473267 -19.839984 151.58944 22.10528 -167.051465 -1.919694 -18.33962 44.676838 -35.06934 19.358929 9.90853 -126.391208 -72.215211 -166.088532 103.418871 -24.447718 132.648576 58.964415 10.608948 -158.161667 -77.135388 28.272319 -40.274385 71.834589 16.81073 -102.02118 -57.531291 -30.839438 -141.54819 148.620171 41.019559 139.277141 2.092027 0.326662 5.587563 46.803191 -65.348549 -168.254001 66.619834 -47.337259 -175.419459 33.501109 48.475197 37.559084
-89.2646 63.711600000000004 117.8107 -173.038428 16.767237 -173.112433 5.968601 14.776165 5.761107 -3.053397 -12.836089 -0.107281 -1.720787 12.861437 102.835063 -24.125737 3.67327 -90.761333 70.865556 -26.540846 -36.67704 -130.34251 16.031644 33.856993 -135.265467 26.162953 135.251791 138.366056 -26.372319 178.767485 -4.754182 1.456223 89.085701 -1.963909 9.426906 -12.791239 -63.190833 11.008719 34.286772 -127.431018 -52.85069 94.197412 -125.469589 19.834387 87.832353 179.730578 -41.823763 76.066145 -168.891804 1.879554 145.080041 -17.648545 25.067536 -52.1073 130.575692 -76.280661 121.409575 -43.431666 -13.581217 -37.213808 -119.123619 36.267125 155.707686 -6.288223 53.301938 54.358463 121.016233 -53.663989 152.585268 29.032964 -0.040259 59.392865 -1.767726 -20.908828 112.258233 -174.291179 -13.752426 -142.974007 2.70612 -26.513436 -20.765887 14.88399 -23.189497 106.997205 93.977974 -66.445024 -179.878358 -169.896403 59.964023 130.271537 -111.750263 84.012772 104.455188 -175.666344 -40.834647 176.435692 92.173256 9.276238 149.629346 -107.113773 14.763876 20.430793 138.101509 39.991813 145.754689 51.624411 -6.962183 108.270282 42.662631 31.567419 63.041517 -59.788724 33.061197 10.888553 66.064997 9.316785 81.274781 -177.755197 2.32969 -164.370411 59.722532 21.541275 32.619996 -76.778164 -56.246644 -170.227352 -57.80541 -63.879835 37.189077 151.538918 -4.681562 -94.292965
